# AST/ASF file generated using VICON BodyLanguage
# -----------------------------------------------
:version 1.10
:name VICON
:units
  mass 1.0
  length 0.45
  angle deg
:documentation
   .ast/.asf automatically generated from VICON data using
   VICON BodyBuilder and BodyLanguage model FoxedUp or BRILLIANT.MOD
:root
   order TX TY TZ RX RY RZ
   axis XYZ
   position 0 0 0  
   orientation 0 0 0 
:bonedata
  begin
     id 1 
     name lhipjoint
     direction 0.567725 -0.736092 0.368589 
     length 2.42353 
     axis 0 0 0  XYZ
  end
  begin
     id 2 
     name lfemur
     direction 0.34202 -0.939693 0  
     length 7.24894  
     axis 0 0 20  XYZ
    dof rx ry rz
    limits (-160.0 20.0)
           (-70.0 70.0)
           (-60.0 70.0)
  end
  begin
     id 3 
     name ltibia
     direction 0.34202 -0.939693 0   
     length 7.6997   
     axis 0 0 20   XYZ
    dof rx
    limits (-10.0 170.0)
  end
  begin
     id 4 
     name lfoot
     direction 0.100767 -0.276854 0.955614   
     length 2.37556   
     axis -90 7.62852e-016 20   XYZ
    dof rx rz
    limits (-45.0 90.0)
           (-70.0 20.0)
  end
  begin
     id 5 
     name ltoes
     direction 1.53592e-011 -4.21894e-011 1   
     length 1.18363   
     axis -90 7.62852e-016 20   XYZ
    dof rx
    limits (-90.0 20.0)
  end
  begin
     id 6 
     name rhipjoint
     direction -0.556459 -0.742938 0.372017   
     length 2.4012  
     axis 0 0 0  XYZ 
  end
  begin
     id 7 
     name rfemur
     direction -0.34202 -0.939693 0   
     length 7.5119   
     axis 0 0 -20   XYZ
    dof rx ry rz
    limits (-160.0 20.0)
           (-70.0 70.0)
           (-70.0 60.0)
  end
  begin
     id 8 
     name rtibia
     direction -0.34202 -0.939693 0   
     length 7.50155   
     axis 0 0 -20   XYZ
    dof rx
    limits (-10.0 170.0)
 end
 begin
     id 9 
     name rfoot
     direction -0.118427 -0.325376 0.938139   
     length 2.32487  
     axis -90 -7.62852e-016 -20   XYZ
    dof rx rz
    limits (-45.0 90.0)
           (-20.0 70.0)
  end
  begin
     id 10 
     name rtoes
     direction -1.53525e-011 -4.21868e-011 1   
     length 1.15233   
     axis -90 -7.62852e-016 -20   XYZ
    dof rx
    limits (-90.0 20.0)
  end
  begin
     id 11 
     name lowerback
     direction 0.0287568 0.999577 -0.00434502   
     length 2.15243   
     axis 0 0 0   XYZ
    dof rx ry rz
    limits (-20.0 45.0)
           (-30.0 30.0)
           (-30.0 30.0)
  end
  begin
     id 12 
     name upperback
     direction 0.0294009 0.99956 0.00404628   
     length 2.15427   
     axis 0 0 0   XYZ
    dof rx ry rz
    limits (-20.0 45.0)
           (-30.0 30.0)
           (-30.0 30.0)
  end
  begin
     id 13 
     name thorax
     direction 0.0151014 0.999868 0.0059419   
     length 2.14898   
     axis 0 0 0   XYZ
    dof rx ry rz
    limits (-20.0 45.0)
           (-30.0 30.0)
           (-30.0 30.0)
  end
  begin
     id 14 
     name lowerneck
     direction -0.0249197 0.989906 0.139515   
     length 1.6861   
     axis 0 0 0   XYZ
    dof rx ry rz
    limits (-20.0 45.0)
           (-30.0 30.0)
           (-30.0 30.0)
  end
  begin
     id 15 
     name upperneck
     direction 0.0438463 0.988795 -0.142693   
     length 1.71276   
     axis 0 0 0   XYZ
    dof rx ry rz
    limits (-20.0 45.0)
           (-30.0 30.0)
           (-30.0 30.0)
  end
  begin
     id 16
     name head
     direction 0.0148499 0.997845 -0.0639186  
     length 1.7209  
     axis 0 0 0   XYZ
    dof rx ry rz
    limits (-20.0 45.0)
           (-30.0 30.0)
           (-30.0 30.0)
  end
  begin
     id 17 
     name lclavicle
     direction 0.940298 0.323464 -0.105876  
     length 3.9048  
     axis 0 0 0   XYZ
    dof ry rz
    limits (-20.0 10.0)
           (0.0 20.0)
  end
  begin
     id 18 
     name lhumerus
     direction 1 -4.48954e-011 -4.9675e-028   
     length 4.6851   
     axis 180 -30 -90   XYZ
    dof rx ry rz
    limits (-60.0 90.0)
           (-90.0 90.0)
           (-90.0 90.0)
  end
  begin
     id 19
     name lradius
     direction 1 -4.48992e-011 -1.03359e-026   
     length 3.39626   
     axis 180 -30 -90   XYZ
    dof rx
    limits (-10.0 170.0)
  end
  begin
     id 20
     name lwrist
     direction 1 -4.48906e-011 -1.67336e-026   
     length 1.69813   
     axis 9.90442e-015 90 90   XYZ
    dof ry
    limits (-180.0 0.0)
 end
  begin
     id 21 
     name lhand
     direction 1 -4.49006e-011 -3.34673e-026   
     length 0.486078   
     axis 2.1355e-014 90 90   XYZ
    dof rx rz
    limits (-90.0 90.0)
           (-45.0 45.0)
  end
  begin
     id 22 
     name lfingers
     direction 1 -4.48992e-011 -6.69345e-026   
     length 0.391889   
     axis 4.27099e-014 90 90   XYZ
    dof rx
    limits (0.0 90.0)
  end
  begin
     id 23
     name lthumb
     direction 0.707107 -6.34926e-011 0.707107   
     length 0.562676   
     axis -90 45 2.85299e-015   XYZ
    dof rx rz
    limits (-45.0 45.0)
           (-45.0 45.0)
  end
  begin
     id 24 
     name rclavicle
     direction -0.882459 0.414895 -0.221648   
     length 3.44646  
     axis 0 0 0   XYZ 
    dof ry rz
    limits (-10.0 20.0)
           (-20.0 0.0)
  end
  begin
     id 25 
     name rhumerus
     direction -1 -4.48962e-011 -2.37984e-027  
     length 5.55576   
     axis 180 30 90   XYZ
    dof rx ry rz
    limits (-90.0 60.0)
           (-90.0 90.0)
           (-90.0 90.0)
  end
  begin
     id 26 
     name rradius
     direction -1 -4.48982e-011 -6.86791e-027   
     length 3.32774   
     axis 180 30 90   XYZ
    dof rx
    limits (-10.0 170.0)
  end
  begin
     id 27 
     name rwrist
     direction -1 -4.48961e-011 -1.67336e-026   
     length 1.66387   
     axis 9.90442e-015 -90 -90   XYZ
    dof ry
    limits (-180.0 0.0)
  end
  begin
     id 28
     name rhand
     direction -1 -4.4897e-011 -3.34673e-026   
     length 0.507628   
     axis 2.1355e-014 -90 -90   XYZ
    dof rx rz
    limits (-90.0 90.0)
           (-45.0 45.0)
  end
  begin
     id 29
     name rfingers
     direction -1 -4.48854e-011 -6.69345e-026   
     length 0.409263   
     axis 4.27099e-014 -90 -90   XYZ
    dof rx
    limits (0.0 90.0)
  end
  begin
     id 30
     name rthumb
     direction -0.707107 -6.34913e-011 0.707107   
     length 0.587622   
     axis -90 -45 -2.85299e-015   XYZ
    dof rx rz
    limits (-45.0 45.0)
           (-45.0 45.0)
  end
:hierarchy
  begin
    root lhipjoint rhipjoint lowerback
    lhipjoint lfemur
    lfemur ltibia
    ltibia lfoot
    lfoot ltoes
    rhipjoint rfemur
    rfemur rtibia
    rtibia rfoot
    rfoot rtoes
    lowerback upperback
    upperback thorax
    thorax lowerneck lclavicle rclavicle
    lowerneck upperneck
    upperneck head
    lclavicle lhumerus
    lhumerus lradius
    lradius lwrist
    lwrist lhand lthumb
    lhand lfingers
    rclavicle rhumerus
    rhumerus rradius
    rradius rwrist
    rwrist rhand rthumb
    rhand rfingers
  end

#!OML:ASF E:\motion texture\Top Level 1\Subject 1\Session 1\male.ASF
:FULLY-SPECIFIED
:DEGREES
1
root 42.7913 17.9527 6.20896 143.181 -83.9644 -135.066
lowerback -3.81809 -0.315385 1.96447
upperback -3.5707 -0.550375 2.59481
thorax -1.51924 -0.330152 1.55112
lowerneck -14.4628 -9.00744 -10.7969
upperneck 17.2126 -11.7006 7.84432
head 8.87334 -5.52951 2.91658
rclavicle 7.44821e-015 -1.23246e-014
rhumerus -28.6127 -9.29839 -77.0601
rradius 22.6234
rwrist 13.495
rhand -10.7147 -22.7679
rfingers 7.12502
rthumb 15.2954 -52.1823
lclavicle 7.44821e-015 -1.23246e-014
lhumerus -33.9442 21.3385 75.6761
lradius 21.6571
lwrist -32.6362
lhand -12.5611 17.8038
lfingers 7.12502
lthumb 13.5163 47.3451
rfemur -8.20828 2.9611 26.3049
rtibia 15.279
rfoot -10.4092 -14.6785
rtoes 10.9553
lfemur -4.7249 -5.13634 -15.0579
ltibia 9.13237
lfoot -9.68028 3.18774
ltoes 4.79262
2
root 42.8037 17.9569 6.21824 143.766 -83.904 -135.543
lowerback -3.91806 -0.542974 2.06112
upperback -3.47192 -0.864994 2.82472
thorax -1.35598 -0.487645 1.72351
lowerneck -14.8766 -8.80943 -11.3351
upperneck 17.4531 -11.2749 7.88672
head 9.02357 -5.34559 3.06188
rclavicle 2.09345e-015 3.18055e-015
rhumerus -28.1663 -8.66181 -77.1338
rradius 22.7084
rwrist 13.776
rhand -10.8532 -24.0111
rfingers 7.12502
rthumb 15.1619 -53.4357
lclavicle 2.09345e-015 3.18055e-015
lhumerus -33.968 21.859 75.9512
lradius 21.9184
lwrist -32.2994
lhand -12.5813 18.0021
lfingers 7.12502
lthumb 13.4968 47.5447
rfemur -8.50373 2.84334 26.2556
rtibia 15.4944
rfoot -10.4053 -14.5016
rtoes 11.0656
lfemur -4.9425 -5.20836 -15.0866
ltibia 9.24567
lfoot -9.67883 3.33426
ltoes 5.0407
3
root 42.7771 17.9531 6.1993 142.316 -84.3845 -134.249
lowerback -3.9015 -0.932527 1.62129
upperback -3.41951 -1.37406 3.08006
thorax -1.28746 -0.73175 2.21879
lowerneck -15.1574 -8.64229 -11.7971
upperneck 17.686 -10.8862 7.77058
head 9.13501 -5.19588 3.14237
rclavicle 2.32827e-014 -4.53229e-014
rhumerus -27.9311 -7.20652 -77.2627
rradius 22.3373
rwrist 12.9762
rhand -9.0704 -26.5175
rfingers 7.12502
rthumb 16.8787 -55.804
lclavicle 2.32827e-014 -4.53229e-014
lhumerus -34.2606 22.7704 75.9268
lradius 21.9391
lwrist -32.5723
lhand -12.5973 17.9009
lfingers 7.12502
lthumb 13.4814 47.4446
rfemur -7.97842 2.78598 26.0898
rtibia 15.0678
rfoot -10.3913 -14.9092
rtoes 11.0491
lfemur -4.6482 -5.20316 -15.2993
ltibia 9.09531
lfoot -9.60224 2.86492
ltoes 4.93955
4
root 42.7895 17.9511 6.20187 143.334 -84.0605 -135.153
lowerback -4.00263 -1.06916 1.78043
upperback -3.344 -1.57234 3.36107
thorax -1.14488 -0.833948 2.41024
lowerneck -15.0306 -8.34259 -12.2585
upperneck 17.4162 -10.3694 7.88268
head 8.99834 -4.97433 3.33619
rclavicle -8.08184e-015 2.8625e-014
rhumerus -27.6096 -6.6191 -77.2417
rradius 22.3784
rwrist 13.2485
rhand -10.7969 -23.5861
rfingers 7.12502
rthumb 15.2161 -53.0066
lclavicle -8.08184e-015 2.8625e-014
lhumerus -34.3286 23.5156 76.0454
lradius 22.095
lwrist -32.491
lhand -12.586 17.9541
lfingers 7.12502
lthumb 13.4922 47.497
rfemur -8.30079 2.96412 26.2507
rtibia 15.3308
rfoot -10.4088 -14.7714
rtoes 11.1124
lfemur -4.79835 -5.1631 -15.1031
ltibia 9.12777
lfoot -9.66855 3.11908
ltoes 4.92372
5
root 42.7894 17.9496 6.19913 142.427 -83.9858 -134.241
lowerback -4.01259 -1.30983 1.87432
upperback -3.3082 -1.90387 3.64568
thorax -1.0869 -1.00199 2.64047
lowerneck -15.1033 -8.14029 -12.7419
upperneck 17.4744 -9.96212 7.87874
head 9.01416 -4.81314 3.46957
rclavicle -2.4494e-014 -9.93923e-015
rhumerus -27.3686 -5.70981 -77.2928
rradius 22.3107
rwrist 13.2304
rhand -10.9394 -23.3957
rfingers 7.12502
rthumb 15.0789 -52.8265
lclavicle -2.4494e-014 -9.93923e-015
lhumerus -34.5372 24.247 76.1016
lradius 22.2361
lwrist -32.4894
lhand -12.594 17.9507
lfingers 7.12502
lthumb 13.4846 47.4942
rfemur -8.31445 2.98386 26.4093
rtibia 15.356
rfoot -10.4029 -14.7853
rtoes 11.1407
lfemur -4.77808 -5.17654 -14.94
ltibia 9.09254
lfoot -9.66067 3.14312
ltoes 4.85978
6
root 42.7763 17.9515 6.18702 141.617 -84.3668 -133.458
lowerback -3.89232 -1.4924 1.78144
upperback -3.54243 -2.13291 3.5124
thorax -1.3896 -1.11683 2.55728
lowerneck -14.68 -7.98301 -12.7685
upperneck 17.7073 -9.83305 7.91682
head 9.00654 -4.76951 3.51896
rclavicle 1.27781e-014 -2.82274e-014
rhumerus -27.9089 -5.32293 -77.5365
rradius 22.2148
rwrist 12.9546
rhand -11.7081 -21.7532
rfingers 7.12502
rthumb 14.3383 -51.2381
lclavicle 1.27781e-014 -2.82274e-014
lhumerus -35.0638 23.7332 75.9446
lradius 22.4399
lwrist -32.0823
lhand -12.6498 17.9366
lfingers 7.12502
lthumb 13.4308 47.4836
rfemur -8.09079 2.99175 26.2297
rtibia 15.1111
rfoot -10.3941 -15.1306
rtoes 11.3798
lfemur -4.72966 -5.28127 -15.1302
ltibia 9.06777
lfoot -9.62964 2.90052
ltoes 4.78504
7
root 42.7875 17.95 6.19417 143.401 -84.15 -135.144
lowerback -3.68808 -0.74618 2.44068
upperback -3.96319 -1.13078 2.55445
thorax -2.00031 -0.640688 1.23779
lowerneck -12.754 -8.16289 -11.2105
upperneck 17.0508 -10.6692 8.00204
head 8.44156 -5.1174 3.24521
rclavicle 2.98798e-015 -1.70955e-014
rhumerus -29.5203 -8.11802 -77.6016
rradius 22.5906
rwrist 13.4386
rhand -10.868 -23.2837
rfingers 7.12502
rthumb 15.1477 -52.7093
lclavicle 2.98798e-015 -1.70955e-014
lhumerus -34.9223 20.5156 75.9553
lradius 22.4813
lwrist -31.4973
lhand -12.5234 18.2072
lfingers 7.12502
lthumb 13.5526 47.7461
rfemur -8.39315 2.96602 26.2111
rtibia 15.3637
rfoot -10.403 -14.8562
rtoes 11.2526
lfemur -4.84733 -5.25106 -15.1455
ltibia 9.08122
lfoot -9.67033 3.12342
ltoes 4.75475
8
root 42.7868 17.9495 6.19181 143.349 -84.1668 -135.05
lowerback -3.61032 -0.791971 2.06519
upperback -4.10339 -1.18246 2.90069
thorax -2.17388 -0.657754 1.80751
lowerneck -12.2986 -8.07143 -11.5237
upperneck 16.9366 -10.4802 7.79736
head 8.30895 -5.07927 3.26738
rclavicle -6.27414e-015 1.70955e-014
rhumerus -29.7396 -7.69936 -77.1313
rradius 22.5965
rwrist 13.495
rhand -11.0359 -23.1389
rfingers 7.12502
rthumb 14.9859 -52.5767
lclavicle -6.27414e-015 1.70955e-014
lhumerus -35.2652 20.7324 76.3605
lradius 22.6074
lwrist -31.5268
lhand -12.6608 18.0508
lfingers 7.12502
lthumb 13.4201 47.5985
rfemur -8.44291 2.95835 26.2111
rtibia 15.3748
rfoot -10.4145 -14.8674
rtoes 11.2698
lfemur -4.90871 -5.22295 -15.131
ltibia 9.09072
lfoot -9.66121 3.11033
ltoes 4.49628
9
root 42.7864 17.9493 6.18807 143.334 -84.1712 -135.003
lowerback -3.46953 -0.927582 1.75301
upperback -4.40698 -1.35373 3.25381
thorax -2.54939 -0.737575 2.35359
lowerneck -11.3051 -7.79263 -12.0609
upperneck 16.7634 -10.0999 7.7666
head 8.06261 -4.96663 3.42617
rclavicle -8.62228e-015 -1.74931e-014
rhumerus -30.2471 -6.82154 -76.8319
rradius 22.6374
rwrist 13.2963
rhand -10.7351 -22.5382
rfingers 7.12502
rthumb 15.2757 -51.9541
lclavicle -8.62228e-015 -1.74931e-014
lhumerus -36.0279 20.9631 76.5809
lradius 22.8203
lwrist -31.4253
lhand -12.7229 18.3107
lfingers 7.12502
lthumb 13.3603 47.8624
rfemur -8.495 2.98904 26.2324
rtibia 15.4227
rfoot -10.4328 -14.8878
rtoes 11.3201
lfemur -4.93542 -5.15746 -15.099
ltibia 9.06906
lfoot -9.59779 3.05178
ltoes 4.68276
10
root 42.7851 17.949 6.18553 143.241 -84.1812 -134.893
lowerback -3.214 -1.11978 1.57759
upperback -4.93231 -1.59916 3.52014
thorax -3.22042 -0.859512 2.745
lowerneck -9.66344 -7.38073 -12.5011
upperneck 16.5038 -9.64904 7.69098
head 7.65621 -4.83781 3.58169
rclavicle 7.37988e-015 5.56597e-015
rhumerus -31.208 -5.80207 -76.698
rradius 22.753
rwrist 13.1009
rhand -10.9888 -23.2987
rfingers 7.12502
rthumb 15.0313 -52.733
lclavicle 7.37988e-015 5.56597e-015
lhumerus -37.4033 20.9439 76.4758
lradius 23.208
lwrist -31.1135
lhand -12.8469 18.3461
lfingers 7.12502
lthumb 13.2408 47.9056
rfemur -8.49838 2.97029 26.2383
rtibia 15.3906
rfoot -10.4053 -14.886
rtoes 11.3417
lfemur -4.94311 -5.18523 -15.0863
ltibia 9.05789
lfoot -9.61902 3.04438
ltoes 4.8962
11
root 42.7845 17.9487 6.18309 143.098 -84.1969 -134.721
lowerback -3.01516 -1.09406 1.57113
upperback -5.00002 -1.5559 3.53754
thorax -3.40382 -0.837369 2.77415
lowerneck -9.7116 -7.40368 -12.4226
upperneck 16.5772 -9.67505 7.59201
head 7.68263 -4.8532 3.53139
rclavicle -1.60519e-014 2.10712e-014
rhumerus -31.3496 -6.00572 -76.5548
rradius 22.7225
rwrist 13.1875
rhand -10.6034 -22.8974
rfingers 7.12502
rthumb 15.4026 -52.3036
lclavicle -1.60519e-014 2.10712e-014
lhumerus -37.4338 20.68 76.6947
lradius 23.3613
lwrist -31.0586
lhand -12.7965 18.2784
lfingers 7.12502
lthumb 13.2894 47.8347
rfemur -8.52568 2.98913 26.2538
rtibia 15.3905
rfoot -10.4268 -14.9089
rtoes 11.5063
lfemur -4.98258 -5.24622 -15.07
ltibia 9.08233
lfoot -9.6922 3.07112
ltoes 4.94502
12
root 42.7823 17.9483 6.18092 143.422 -84.2242 -135.012
lowerback -2.97339 -0.984007 1.60046
upperback -4.78926 -1.40601 3.44941
thorax -3.21576 -0.761001 2.66203
lowerneck -10.5605 -7.55526 -12.0836
upperneck 16.7757 -9.80216 7.40859
head 7.88527 -4.88264 3.37274
rclavicle -1.47349e-014 2.22639e-014
rhumerus -31.0419 -6.53401 -76.4998
rradius 22.7096
rwrist 13.207
rhand -10.6288 -22.8869
rfingers 7.12502
rthumb 15.3781 -52.2949
lclavicle -1.47349e-014 2.22639e-014
lhumerus -36.7236 20.3385 77.0901
lradius 23.324
lwrist -31.019
lhand -12.8588 18.0509
lfingers 7.12502
lthumb 13.2293 47.6111
rfemur -8.54873 2.95971 26.2101
rtibia 15.3766
rfoot -10.3988 -14.8858
rtoes 11.4271
lfemur -5.00839 -5.26159 -15.1173
ltibia 9.08425
lfoot -9.64526 3.08644
ltoes 5.11902
13
root 42.7819 17.948 6.17849 143.244 -84.2677 -134.786
lowerback -2.82618 -0.957659 1.58877
upperback -4.85227 -1.36407 3.45304
thorax -3.36531 -0.739682 2.67761
lowerneck -10.5495 -7.56053 -11.9434
upperneck 16.8113 -9.80935 7.25538
head 7.88047 -4.89127 3.29889
rclavicle -3.02153e-014 4.69132e-014
rhumerus -31.1752 -6.69026 -76.3963
rradius 22.6954
rwrist 13.2478
rhand -11.0412 -22.9259
rfingers 7.12502
rthumb 14.9808 -52.3641
lclavicle -3.02153e-014 4.69132e-014
lhumerus -36.7223 19.9125 77.3909
lradius 23.5322
lwrist -30.8503
lhand -12.7845 18.1425
lfingers 7.12502
lthumb 13.301 47.698
rfemur -8.60457 2.93517 26.2026
rtibia 15.3919
rfoot -10.4108 -14.9007
rtoes 11.4617
lfemur -5.07512 -5.25289 -15.115
ltibia 9.09955
lfoot -9.66265 3.0397
ltoes 4.90878
